<?xml version="1.0" encoding="UTF-8" standalone="no"?>
<!DOCTYPE svg PUBLIC "-//W3C//DTD SVG 20010904//EN" "http://www.w3.org/TR/2001/REC-SVG-20010904/DTD/svg10.dtd">
<svg version="1.0" xmlns="http://www.w3.org/2000/svg" width="370.000000pt" height="425.000000pt" viewBox="0 0 370.000000 425.000000" preserveAspectRatio="xMidYMid meet">

<g transform="translate(0.000000,425.000000) scale(0.100000,-0.100000)" fill="#000000" stroke="none">
<path d="M1600 4204 c-530 -48 -982 -166 -1403 -367 l-148 -71 4 -895 3 -896 27 -120 c87 -392 267 -718 571 -1033 296 -306 683 -575 1100 -763 104 -47 77 -53 311 64 382 190 701 420 971 699 304 315 484 641 571 1033 l27 120 3 896 4 895 -148 71 c-360 172 -801 299 -1213 348 -128 16 -577 28 -680 19z m490 -134 c452 -32 849 -131 1273 -317 l148 -66 -3 -841 c-4 -943 -3 -919 -79 -1151 -151 -456 -496 -872 -1004 -1210 -170 -113 -302 -189 -459 -266 l-119 -58 -56 25 c-147 65 -387 202 -566 325 -222 151 -469 374 -614 554 -153 190 -280 418 -350 630 -76 232 -75 208 -79 1151 l-3 841 138 61 c582 257 1173 364 1773 322z"/>
<path d="M1203 3466 c-129 -42 -224 -149 -248 -279 -8 -39 -5 -40 92 -53 64 -8 74 -1 109 72 29 61 63 89 125 103 117 26 199 -38 199 -156 0 -97 -54 -148 -172 -161 l-63 -7 -3 -66 c-3 -75 0 -79 88 -79 63 0 130 -36 152 -80 40 -79 11 -188 -63 -237 -36 -24 -53 -28 -109 -28 -56 0 -73 5 -108 27 -23 15 -53 49 -68 75 -34 59 -50 73 -87 73 -37 0 -127 -39 -127 -55 0 -32 74 -156 116 -195 78 -72 119 -85 264 -85 119 0 128 1 191 31 121 58 186 150 196 279 10 124 -35 213 -130 262 -46 23 -50 27 -33 37 108 65 141 120 140 241 0 67 -4 89 -26 131 -31 60 -84 109 -147 137 -58 27 -224 34 -288 13z"/>
<path d="M1860 2905 l0 -565 248 0 c179 0 266 4 317 15 253 53 425 274 425 545 0 221 -111 415 -289 505 -113 56 -171 65 -453 65 l-248 0 0 -565z m582 357 c77 -38 110 -72 151 -161 26 -55 31 -79 35 -165 7 -169 -37 -286 -136 -362 -67 -51 -124 -64 -284 -64 l-138 0 0 396 0 396 153 -3 c149 -4 154 -5 219 -37z"/>
<path d="M922 1970 c-18 -11 -40 -37 -48 -56 -29 -70 6 -132 89 -160 67 -21 79 -32 75 -63 -5 -41 -46 -49 -99 -22 l-43 23 -23 -27 c-13 -14 -23 -30 -23 -35 0 -4 21 -18 46 -30 36 -18 58 -21 105 -18 80 6 119 42 126 115 4 42 1 53 -21 80 -17 20 -46 38 -79 48 -63 21 -81 36 -73 63 9 28 49 35 93 17 36 -15 39 -15 55 6 26 32 22 48 -17 65 -50 20 -123 18 -163 -6z"/>
<path d="M1180 1785 l0 -205 131 0 130 0 -3 38 -3 37 -82 3 -83 3 0 44 0 45 65 0 65 0 0 35 0 35 -65 0 -65 0 0 45 0 44 83 3 82 3 0 35 0 35 -127 3 -128 3 0 -206z"/>
<path d="M1585 1973 c-45 -23 -86 -64 -101 -100 -29 -67 -12 -186 34 -236 51 -57 168 -75 242 -37 52 27 57 38 27 67 -24 24 -26 25 -48 9 -35 -24 -102 -21 -134 7 -52 44 -52 160 0 205 19 16 39 22 75 22 27 0 52 -4 55 -10 10 -16 40 -12 58 8 25 28 21 40 -23 62 -48 25 -141 26 -185 3z"/>
<path d="M1850 1842 c0 -170 10 -201 76 -240 52 -31 154 -28 200 6 55 38 64 73 64 236 l0 146 -45 0 -45 0 0 -139 c0 -125 -2 -141 -21 -165 -27 -34 -86 -37 -115 -5 -16 18 -19 40 -22 165 l-3 144 -45 0 -44 0 0 -148z"/>
<path d="M2254 1977 c-2 -7 -3 -98 -2 -202 l3 -190 48 -3 47 -3 0 76 c0 73 1 76 22 73 15 -2 35 -25 63 -73 l41 -70 52 -3 c29 -2 52 0 52 4 0 9 -69 124 -87 145 -12 14 -10 20 16 47 71 70 47 169 -48 201 -48 16 -200 15 -207 -2z m170 -68 c30 -14 39 -45 23 -79 -10 -20 -21 -26 -55 -28 l-42 -3 0 60 c0 58 1 61 25 61 13 0 35 -5 49 -11z"/>
<path d="M2620 1785 l0 -205 130 0 130 0 0 40 0 40 -80 0 -80 0 0 45 0 45 60 0 60 0 0 35 0 35 -60 0 -60 0 0 45 0 45 80 0 80 0 0 40 0 40 -130 0 -130 0 0 -205z"/>
</g>
<script xmlns=""/></svg>