<?xml version="1.0" encoding="UTF-8"?> <svg xmlns="http://www.w3.org/2000/svg" id="Capa_1" data-name="Capa 1" viewBox="0 0 85.04 25.28"><defs><style>.cls-1{fill:#3b3c43;}</style></defs><path class="cls-1" d="M56.21,24.71A1.3,1.3,0,0,0,54.9,26v9.7a1.32,1.32,0,0,0,2.63,0V26a1.31,1.31,0,0,0-1.32-1.29m0-4.84a1.48,1.48,0,0,0-1.48,1.48,1.48,1.48,0,1,0,3,0,1.48,1.48,0,0,0-1.48-1.48M69,26a1.12,1.12,0,0,0-1.23-1.12h-6.5A1.13,1.13,0,0,0,60.16,26a1.15,1.15,0,0,0,1.15,1.15h4.27L60,34.83a1.42,1.42,0,0,0-.26.77A1.25,1.25,0,0,0,61,36.87h6.91A1.16,1.16,0,0,0,69,35.72a1.14,1.14,0,0,0-1.15-1.15H63.24L68.66,27A1.67,1.67,0,0,0,69,26M49.85,32.08c0,1.6-.7,2.58-2.28,2.58s-2.27-1-2.27-2.58v-5h2.39c1.92,0,2.16,1.06,2.16,2.24Zm2.61-2.77c0-2.72-1.44-4.46-4.75-4.46H45.3V21.18a1.31,1.31,0,1,0-2.61,0v10.9c0,2.7,1.46,4.93,4.88,4.93s4.89-2.23,4.89-4.93V29.36h0Zm26.82-4.6A1.3,1.3,0,0,0,78,26v6.06c0,1.6-.71,2.58-2.28,2.58s-2.28-1-2.28-2.58V26a1.31,1.31,0,1,0-2.61,0v6.06c0,2.7,1.46,4.93,4.89,4.93s4.88-2.23,4.88-4.93V26a1.3,1.3,0,0,0-1.29-1.31m19.93,4.93c0-2.7-1.25-4.94-4.68-4.94a4.6,4.6,0,0,0-3.37,1.2,4.58,4.58,0,0,0-3.38-1.2c-3.4,0-4.67,2.24-4.67,4.94V35.7a1.3,1.3,0,1,0,2.6,0V29.64c0-1.6.5-2.58,2.07-2.58s2.08,1,2.08,2.58V35.7a1.3,1.3,0,1,0,2.6,0V29.64c0-1.6.5-2.58,2.07-2.58s2.08,1,2.08,2.58V35.7a1.3,1.3,0,1,0,2.6,0Zm-80.4-4.92a2.05,2.05,0,0,0,2.87-.46l2.42-3.32a2.07,2.07,0,0,0-.46-2.88,2.05,2.05,0,0,0-2.87.46l-2.42,3.33a2,2,0,0,0,.46,2.87m11-4.69a2,2,0,0,0-2.87.45L17.3,33.79a2.05,2.05,0,1,0,3.32,2.42L30.3,22.9A2.06,2.06,0,0,0,29.84,20M17.89,19a2.05,2.05,0,1,0-2.87.46A2,2,0,0,0,17.89,19M32.57,37.26A2.06,2.06,0,1,0,33,40.14a2.06,2.06,0,0,0-.46-2.88M28.79,32a2.06,2.06,0,0,0-2.87.46L23.5,35.76a2.06,2.06,0,1,0,3.33,2.41l2.41-3.32A2.06,2.06,0,0,0,28.79,32" transform="translate(-14.17 -15.71)"></path></svg> 