<?xml version="1.0" encoding="UTF-8"?>
<!-- Generator: Adobe Illustrator 19.1.0, SVG Export Plug-In . SVG Version: 6.00 Build 0)  -->
<!DOCTYPE svg PUBLIC "-//W3C//DTD SVG 1.1//EN" "http://www.w3.org/Graphics/SVG/1.1/DTD/svg11.dtd">
<svg version="1.1" id="Ebene_1" xmlns="http://www.w3.org/2000/svg" xmlns:xlink="http://www.w3.org/1999/xlink" x="0px" y="0px" viewBox="0 0 175.7 56.9" style="enable-background:new 0 0 175.7 56.9;" xml:space="preserve">
<style type="text/css">
	.st0{fill-rule:evenodd;clip-rule:evenodd;}
</style>
<g>
	<path class="st0" d="M82.7,11.9h9.1c0,0,9-0.2,8.9,8c-0.1,6.1-8.8,7-8.8,7h-9.3V11.9L82.7,11.9z M109.9,41.4c0.3,1.2,1.1,2.5,4,2.6   c3.8,0.1,6-1.4,6-1.4v2.8c0,0-4.2,1-6.2,1c-2.1,0-8.3-0.5-8.3-6.2c0-4.6,5.1-6.1,8-6.1c5.1,0.2,7.6,2,7.5,7.2   C121,41.5,112.6,41.4,109.9,41.4L109.9,41.4z M110,39.1h7c0,0,0-2.6-3.4-2.6C111,36.5,110.2,37.8,110,39.1L110,39.1z M132.1,36.3   c1-1.1,2.7-2,5.6-2c5.7,0,6.6,4.7,6.5,6c-0.1,1.3-0.5,6.1-7.1,6.1c-2.5,0-4-0.8-4.9-1.9V46h-4.5V29.6h4.5V36.3L132.1,36.3z    M135.9,43.8c2.6-0.1,3.8-2.4,3.8-3.5c0-1.1-0.6-3.4-4-3.4c-2.6,0-3.4,2-3.6,2.9v1.2C132.3,42.1,133.1,43.8,135.9,43.8L135.9,43.8z    M174.5,43.4l0.1,2.6c0,0-2.1,0.5-3.5,0.5c-1.4,0-4.9-0.8-4.9-4.3c0-1.4,0-3.4,0-5.3h-3.7v-2.4h3.7c0-1.6,0-2.8,0-2.8h4.6v2.8h3.7   v2.4h-3.7v4.6c0,0,0,2.3,1.8,2.3C174.4,43.7,174.5,43.4,174.5,43.4L174.5,43.4z M160.6,14.4h5.3v12.7h4.5V14.4h5.4v-2.6h-15.1V14.4   L160.6,14.4z M158.8,15l0.5-2.6c0,0-2.3-1-6.3-1c-3.9,0-10.2,2.2-10.2,8.1c0,5.8,6.7,7.8,10.8,7.8c4.1,0,5.5-0.6,5.5-0.6l-0.5-2.9   c0,0-1.8,0.5-4.9,0.5c-3-0.1-6.1-2.5-6.1-5.1c0.1-2.4,2.8-5,6.4-5C156.7,14.2,158.8,15,158.8,15L158.8,15z M118.5,11.9   c0,0,7.5-0.4,7.5,4c0,3.7-4.3,4-4.3,4s1.2,0.2,1.7,1c0.5,0.7,3.5,6.2,3.5,6.2h-4.6c0,0-0.7-0.9-1.1-1.5c-0.3-0.6-1.1-2-1.1-2   s-0.6-2.3-2.8-2.3c-0.1,0-0.9,0-1.6-0.1v5.9h-4.4V11.9H118.5L118.5,11.9z M115.7,18.7h2.4c0,0,3.3-0.2,3.5-2.2   c0.1-1.9-3.2-2.2-3.2-2.2h-2.6V18.7L115.7,18.7z M134,21.1h7.3v-2.8H134v-3.5h7.9v-2.9h-12.4v15.2H142v-2.7h-8V21.1L134,21.1z    M151.8,32.7h4.5v-3.1h-4.5V32.7L151.8,32.7z M151.8,46h4.5V34.5h-4.5V46L151.8,46z M103.1,27.1h4.4V11.9h-4.4V27.1L103.1,27.1z    M82.7,30.9h9.1c0,0,9-0.2,8.9,8c-0.1,6.1-8.8,7-8.8,7h-9.3V30.9L82.7,30.9z M87.1,43.1h2.9c0,0,6-0.4,6-5c0-4.6-6.4-5.1-6.4-5.1   h-2.6V43.1L87.1,43.1z M87.1,24.2h2.9c0,0,6-0.5,6-5c0-4.7-6.4-5.1-6.4-5.1h-2.6V24.2L87.1,24.2z"/>
	<path class="st0" d="M41.7,21v30.5c0,0-17.7-3.2-17.7-15.3C24.1,26.5,37.2,22.3,41.7,21L41.7,21z M41.7,20.4   C31.1,19.7,7,24.6,7,35.6c0,7.1,12.8,17.5,33.5,17.8c0.8,0,24.4-0.9,24.1-26.3C64.3,5.8,48.4,2.1,43.3,1.4V0.1   c20.3,1.3,36.3,13.5,36.3,28.3c0,15.7-17.9,28.4-39.8,28.4C17.8,56.9,0,44.1,0,28.4C0,12.8,17.8,0,39.7,0c0.7,0,1.3,0,2,0V20.4   L41.7,20.4z"/>
</g>
<script xmlns=""/></svg>