<svg id="Layer_1" data-name="Layer 1" xmlns="http://www.w3.org/2000/svg" viewBox="0 0 113 105"><defs><style>.cls-1{fill:#036ab4;}</style></defs><title>fasterpayments_logo</title><path class="cls-1" d="M8.66,67.8H7.43l-1.2,6.87H2.41L5.63,56.49h5c3,0,5.54,1.15,5.54,4.69C16.21,65.76,13.16,67.8,8.66,67.8Zm1.25-8.4h-1L8,64.89h1c2.26,0,3.27-1.17,3.27-3.38C12.18,60.11,11.41,59.4,9.91,59.4Z"/><path class="cls-1" d="M25.88,74.68H22.36l.31-1.83a3.85,3.85,0,0,1-3.5,2.09c-1.67,0-3.29-1.3-3.29-4.59,0-4.72,2.79-8.19,6-8.19a3.4,3.4,0,0,1,2.74,1l.13-.73H28ZM22.38,65C21,65,19.59,67.37,19.59,70c0,1.33.31,2.11,1,2.11,1.12,0,2.71-2.56,3.31-5.9l.1-.57A2.19,2.19,0,0,0,22.38,65Z"/><path class="cls-1" d="M35.72,73.92c-1.8,3.6-3.6,5.71-7.78,6.24l-.39-2.56a6.28,6.28,0,0,0,4.1-3.11l.37-.73L29.87,62.41H33.6l.94,6.68,3.08-6.68h3.89Z"/><path class="cls-1" d="M58.58,74.68H55.05l1.44-8.09c.1-.52.08-1-.52-1-1.1,0-3.05,2.61-3.6,5.74l-.6,3.39H48.24l1.44-8.09c.1-.52.08-1-.52-1-1.1,0-3.05,2.61-3.6,5.74L45,74.68H41.43L43.6,62.41h3.52l-.5,2.87c.78-1.28,2-3.13,4.12-3.13,1.9,0,2.74,1.23,2.61,3.18.68-1.12,2-3.18,4.2-3.18s2.95,1.59,2.5,4.1Z"/><path class="cls-1" d="M66.09,70c.05,1.36.63,2,1.8,2a7.23,7.23,0,0,0,3.63-1.3l1,2.3a8.38,8.38,0,0,1-5.09,1.88c-2.74,0-4.93-1.33-4.93-5,0-4.31,2.37-7.75,6.55-7.75,3.13,0,4.49,1.36,4.49,3.44C73.5,69,70.73,69.8,66.09,70Zm2.74-5.38c-1.1,0-2.14,1.38-2.56,3.37C68.6,67.71,70,67.16,70,65.8A1.05,1.05,0,0,0,68.83,64.66Z"/><path class="cls-1" d="M85.19,74.68H81.67l1.43-8.09c.1-.52.08-1-.52-1-1.1,0-3.05,2.61-3.6,5.74l-.6,3.39H74.86L77,62.41h3.52l-.5,2.87c.78-1.28,2-3.13,4.12-3.13s2.95,1.59,2.51,4.1Z"/><path class="cls-1" d="M96.15,65H94.32l-1.07,6.05c-.1.52.08.78.47.78a2.24,2.24,0,0,0,1-.26L95.08,74a5.25,5.25,0,0,1-2.92.91c-1.83,0-2.9-1.15-2.45-3.63L90.8,65H89.5L90,62.41h1.3L92,59.75,95.39,59l-.6,3.39h1.83Z"/><path class="cls-1" d="M106,66.14a5.89,5.89,0,0,0-2.9-1.1c-.73,0-1.23.26-1.23.86s.55.78,1.28,1.1l.68.29a3.6,3.6,0,0,1,2.64,3.55c0,2.61-1.38,4.1-4.51,4.1a7.86,7.86,0,0,1-5-1.8l1.38-2.43A6.67,6.67,0,0,0,101.63,72c.81,0,1.15-.29,1.15-.89s-.57-.86-1.3-1.15l-.7-.29a3.5,3.5,0,0,1-2.58-3.5c0-2.82,2.17-4.07,4.88-4.07a6.58,6.58,0,0,1,4.17,1.57Z"/><path class="cls-1" d="M58.61,41.46H51l-.74,4.23h5.89l-.55,3.14H49.72l-1.36,7.69H44.54l3.22-18.19H59.19Z"/><path class="cls-1" d="M66.92,56.51H63.39l.31-1.83a3.85,3.85,0,0,1-3.5,2.09c-1.67,0-3.29-1.3-3.29-4.59,0-4.72,2.79-8.19,6-8.19a3.4,3.4,0,0,1,2.74,1l.13-.73h3.26Zm-3.5-9.65c-1.41,0-2.79,2.35-2.79,4.93,0,1.33.31,2.11,1,2.11,1.12,0,2.71-2.56,3.31-5.9l.1-.57A2.19,2.19,0,0,0,63.42,46.86Z"/><path class="cls-1" d="M78.85,48a5.89,5.89,0,0,0-2.9-1.1c-.73,0-1.23.26-1.23.86s.55.78,1.28,1.1l.68.29a3.6,3.6,0,0,1,2.64,3.55c0,2.61-1.38,4.1-4.51,4.1a7.85,7.85,0,0,1-5-1.8l1.38-2.43a6.67,6.67,0,0,0,3.29,1.33c.81,0,1.15-.29,1.15-.89s-.57-.86-1.3-1.15l-.7-.29A3.5,3.5,0,0,1,71,48.06C71,45.24,73.21,44,75.92,44a6.58,6.58,0,0,1,4.17,1.57Z"/><path class="cls-1" d="M88.63,46.86H86.8l-1.07,6.05c-.1.52.08.78.47.78a2.25,2.25,0,0,0,1-.26l.37,2.43a5.25,5.25,0,0,1-2.92.91c-1.83,0-2.9-1.15-2.45-3.63l1.1-6.29H82l.47-2.61h1.3l.73-2.66,3.39-.73-.6,3.39H89.1Z"/><path class="cls-1" d="M93.27,51.87c.05,1.36.63,2,1.8,2a7.23,7.23,0,0,0,3.63-1.3l1,2.3a8.37,8.37,0,0,1-5.09,1.88c-2.74,0-4.93-1.33-4.93-5C89.65,47.43,92,44,96.2,44c3.13,0,4.49,1.36,4.49,3.44C100.69,50.82,97.92,51.63,93.27,51.87ZM96,46.49c-1.1,0-2.14,1.38-2.56,3.37,2.32-.31,3.73-.86,3.73-2.22A1.05,1.05,0,0,0,96,46.49Z"/><path class="cls-1" d="M110.65,47.8c-1.77,0-3.81,1.51-4.49,5.32l-.6,3.39H102l2.17-12.26h3.44l-.44,2.58C108,45,109,44,111.33,44Z"/><path class="cls-1" d="M57.47,27.25v.06c0,.88-.7,1.75-2.07,2.42L9.47,52c-2.76,1.34-3.78.25-2.28-2.42l8.4-14.93a15.1,15.1,0,0,0,0-14.73L7.2,4.95C5.69,2.28,6.71,1.19,9.47,2.52L55.4,24.77c1.37.66,2.06,1.54,2.07,2.42Z"/><path d="M56.65,103.23V90.76h2.58l.22.85h.07a4.36,4.36,0,0,1,1.16-.77,3.2,3.2,0,0,1,1.35-.3,3.2,3.2,0,0,1,2.61,1.27,4.35,4.35,0,0,1,.72,1.48,7,7,0,0,1,.25,1.94,6.41,6.41,0,0,1-.32,2.12,4.92,4.92,0,0,1-.86,1.56,3.68,3.68,0,0,1-1.23,1,3.27,3.27,0,0,1-1.43.33,2.86,2.86,0,0,1-2.07-.92l.11,1.4v2.55ZM61,97.63a1.19,1.19,0,0,0,1-.52,3.09,3.09,0,0,0,.41-1.84A3.14,3.14,0,0,0,62,93.62a1.08,1.08,0,0,0-1-.5,1.41,1.41,0,0,0-.65.15,2.09,2.09,0,0,0-.6.52v3.39a1.5,1.5,0,0,0,.57.35A2,2,0,0,0,61,97.63Zm7.93,2.58a2.82,2.82,0,0,1-1.16-.23,2.65,2.65,0,0,1-.88-.62,2.59,2.59,0,0,1-.54-.9,3.21,3.21,0,0,1-.18-1.09,2.61,2.61,0,0,1,1.18-2.26A8.48,8.48,0,0,1,71.18,94q-.11-1-1.29-1a3.18,3.18,0,0,0-1.05.19,9.08,9.08,0,0,0-1.27.58l-1.11-2.07a9.13,9.13,0,0,1,2-.9,6.9,6.9,0,0,1,2.08-.31,3.8,3.8,0,0,1,2.81,1,4.51,4.51,0,0,1,1,3.29V100H71.77l-.22-.89h-.07a5.16,5.16,0,0,1-1.17.8A3.07,3.07,0,0,1,68.93,100.21ZM70,97.77a1.08,1.08,0,0,0,.64-.18,3.32,3.32,0,0,0,.51-.45V95.89a3.51,3.51,0,0,0-1.57.5.93.93,0,0,0-.42.72Q69.19,97.77,70,97.77Zm6.49,5.68a5.44,5.44,0,0,1-.78,0,4.7,4.7,0,0,1-.62-.14l.55-2.4.29.07a1.33,1.33,0,0,0,.3,0,1.57,1.57,0,0,0,1-.25,1.42,1.42,0,0,0,.47-.67l.11-.41-3.5-8.89h3.17l1.11,3.54q.2.65.35,1.28l.31,1.34h.07l.29-1.31q.14-.65.3-1.31l.92-3.54h3l-3.1,9.08a13.75,13.75,0,0,1-.75,1.62,4.23,4.23,0,0,1-.88,1.13,3.23,3.23,0,0,1-1.13.65A4.71,4.71,0,0,1,76.53,103.45Zm8.12-3.25a1.73,1.73,0,0,1-1.33-.55,2.06,2.06,0,0,1,0-2.73,1.87,1.87,0,0,1,2.66,0,2.06,2.06,0,0,1,0,2.73A1.74,1.74,0,0,1,84.65,100.21Zm5.81,0a2.92,2.92,0,0,1-1.3-.27,2.37,2.37,0,0,1-.89-.76A3.34,3.34,0,0,1,87.75,98a6.7,6.7,0,0,1-.17-1.56V90.76h3.17V96A2.14,2.14,0,0,0,91,97.22a.82.82,0,0,0,.7.3,1.32,1.32,0,0,0,.73-.18,2.36,2.36,0,0,0,.6-.63V90.76h3.17V100H93.59l-.22-1.22H93.3a4.56,4.56,0,0,1-1.23,1.05A3.18,3.18,0,0,1,90.46,100.21Zm6.82-.22V87.15h3.1V94h.07L103,90.76h3.43l-3.28,3.84,3.47,5.39h-3.43l-1.84-3.28-1,1.07V100Z"/><path d="M2.28,100V87.92H5.72a8.63,8.63,0,0,1,1.85.18A3.91,3.91,0,0,1,9,88.7a2.82,2.82,0,0,1,.92,1.09,3.81,3.81,0,0,1,.33,1.67,3.93,3.93,0,0,1-.32,1.66A3.08,3.08,0,0,1,9,94.29,4,4,0,0,1,7.6,95a6.68,6.68,0,0,1-1.81.23h-2V100Zm1.53-6h1.8A3.78,3.78,0,0,0,8,93.36a2.25,2.25,0,0,0,.76-1.89,2,2,0,0,0-.8-1.81,4.51,4.51,0,0,0-2.38-.51H3.81Z"/><path d="M13.68,100.21a2.71,2.71,0,0,1-1.87-.66,2.38,2.38,0,0,1-.74-1.88,2.48,2.48,0,0,1,1.31-2.25,10.79,10.79,0,0,1,4.17-1.09,4.12,4.12,0,0,0-.08-.83,2.07,2.07,0,0,0-.29-.72,1.5,1.5,0,0,0-.56-.51,1.91,1.91,0,0,0-.91-.19,3.62,3.62,0,0,0-1.45.29A7.09,7.09,0,0,0,12,93l-.59-1A9.78,9.78,0,0,1,13,91.21a5.1,5.1,0,0,1,2-.38,2.75,2.75,0,0,1,2.37,1,4.43,4.43,0,0,1,.74,2.68V100H16.83l-.13-1.07h-.06a7.55,7.55,0,0,1-1.38.91A3.42,3.42,0,0,1,13.68,100.21ZM14.12,99a2.55,2.55,0,0,0,1.21-.3,6.09,6.09,0,0,0,1.21-.89V95.32a15.29,15.29,0,0,0-1.88.35,5,5,0,0,0-1.23.48,1.85,1.85,0,0,0-.68.63,1.51,1.51,0,0,0-.21.78,1.27,1.27,0,0,0,.46,1.1A1.87,1.87,0,0,0,14.12,99Z"/><path d="M20.15,100V91H21.4l.13,1.62h.06a4.13,4.13,0,0,1,1.11-1.34,2.3,2.3,0,0,1,1.43-.5,2.38,2.38,0,0,1,1,.18l-.29,1.32-.4-.11a2.41,2.41,0,0,0-.46,0,2,2,0,0,0-1.19.46,3.66,3.66,0,0,0-1.08,1.6V100Z"/><path d="M30.08,100.21a2.92,2.92,0,0,1-1.2-.22,2.07,2.07,0,0,1-.79-.61,2.36,2.36,0,0,1-.43-.94,5.34,5.34,0,0,1-.13-1.21V92.28H26.2V91.14L27.6,91l.18-2.5h1.27V91h2.41v1.23H29.05v5a2.28,2.28,0,0,0,.3,1.28,1.2,1.2,0,0,0,1.08.45,2,2,0,0,0,.51-.07,3.85,3.85,0,0,0,.5-.17l.29,1.14a7.84,7.84,0,0,1-.8.23A3.75,3.75,0,0,1,30.08,100.21Z"/><path d="M40.82,100.21a4,4,0,0,1-1.57-.31A3.87,3.87,0,0,1,37.94,99,4.43,4.43,0,0,1,37,97.51a5.41,5.41,0,0,1-.34-2,5.47,5.47,0,0,1,.34-2,4.54,4.54,0,0,1,.91-1.48,3.82,3.82,0,0,1,1.31-.92,4.11,4.11,0,0,1,3.14,0,3.82,3.82,0,0,1,1.31.92,4.55,4.55,0,0,1,.91,1.48,5.47,5.47,0,0,1,.34,2,5.42,5.42,0,0,1-.34,2A4.44,4.44,0,0,1,43.71,99a3.87,3.87,0,0,1-1.31.91A4,4,0,0,1,40.82,100.21Zm0-1.25a2.24,2.24,0,0,0,1-.25,2.41,2.41,0,0,0,.82-.7,3.32,3.32,0,0,0,.52-1.08,5,5,0,0,0,.18-1.4,5.05,5.05,0,0,0-.18-1.41A3.43,3.43,0,0,0,42.69,93a2.38,2.38,0,0,0-.82-.71,2.34,2.34,0,0,0-2.1,0A2.37,2.37,0,0,0,39,93a3.42,3.42,0,0,0-.52,1.09,5,5,0,0,0-.18,1.41,4.94,4.94,0,0,0,.18,1.4A3.31,3.31,0,0,0,39,98a2.4,2.4,0,0,0,.82.7A2.24,2.24,0,0,0,40.82,99Z"/><path d="M47.21,100V92.28H46V91.14L47.21,91V89.63a3.38,3.38,0,0,1,.63-2.17,2.38,2.38,0,0,1,2-.79,3.72,3.72,0,0,1,.8.08,4.17,4.17,0,0,1,.69.21L51,88.13a2.47,2.47,0,0,0-1-.22q-1.25,0-1.25,1.73V91h1.89v1.23H48.71V100Z"/><script xmlns=""/></svg>