<?xml version="1.0" encoding="UTF-8"?>
<svg xmlns="http://www.w3.org/2000/svg" xmlns:xlink="http://www.w3.org/1999/xlink" width="221px" height="33px" viewBox="0 0 221 33" version="1.1"><!-- Generator: Sketch 60.1 (88133) - https://sketch.com --><title>Logo White</title><desc>Created with Sketch.</desc><g id="Logo-White" stroke="none" stroke-width="1" fill="none" fill-rule="evenodd"><g id="Logo" fill="#FFFFFF"><path d="M132.649111,13.6715941 C132.895783,13.0268582 133.881354,12.7689639 135.112852,12.6400168 C137.083621,12.3817328 139.054763,12.3817328 141.148682,12.5110696 C145.213742,12.6400168 146.445241,12.8979111 149.401581,13.1558054 C150.017702,13.2847526 151.002901,13.1558054 151.2492,12.1238385 C151.61865,10.3185782 151.61865,9.41516889 150.264002,9.28622172 C146.445241,8.77043306 142.996673,8.38359156 138.685313,8.38359156 C136.221572,8.38359156 132.895783,8.25464439 130.062593,8.64148589 C126.490131,9.15727456 123.657313,10.189631 122.671742,14.7031714 C121.563022,19.7336692 122.794892,22.4423388 129.077394,23.2160218 C133.635054,23.9897048 139.054763,24.3769359 140.286261,24.505883 C141.518131,24.6348302 142.010731,25.4089028 141.641281,26.4404801 C141.641281,26.5694272 141.641281,26.6983744 141.518131,26.9566583 C141.271832,27.6013941 140.286261,27.8592885 139.054763,27.9882356 C137.083621,28.1171828 133.142082,27.9882356 131.047791,27.8592885 C126.983103,27.7303413 125.751232,27.472447 122.794892,27.2145526 C122.178771,27.0856055 121.193572,27.2145526 120.947273,28.24613 C120.577823,30.0517799 120.577823,30.9547996 121.932471,31.0837468 C125.751232,31.599925 129.200544,31.8578193 133.511532,31.9867665 C146.445241,32.6315023 150.264002,30.4390109 151.2492,24.505883 C151.7418,21.7972134 151.37235,18.1859136 146.93784,17.5411778 C142.50333,16.7671052 135.112852,16.2513165 133.881354,16.1223694 C132.649111,15.9934222 132.156512,15.2197392 132.525961,14.1873827 C132.525961,14.0584356 132.525961,13.9294884 132.649111,13.6715941" id="Fill-13"/><path d="M165.168629,13.6715941 C165.414928,13.0268582 166.400499,12.7689639 167.632369,12.6400168 C169.603139,12.3817328 171.573908,12.3817328 173.668199,12.5110696 C177.732888,12.6400168 178.964758,12.8979111 181.920726,13.1558054 C182.53722,13.2847526 183.522418,13.1558054 183.768718,12.1238385 C184.138167,10.3185782 184.138167,9.41516889 182.783519,9.28622172 C178.964758,8.77043306 175.515819,8.38359156 171.204459,8.38359156 C168.74109,8.38359156 165.414928,8.25464439 162.58211,8.64148589 C159.009649,9.15727456 156.176459,10.189631 155.19126,14.7031714 C154.082539,19.7336692 155.31441,22.4423388 161.596167,23.2160218 C166.153827,23.9897048 171.573908,24.3769359 172.805778,24.505883 C174.037649,24.6348302 174.530248,25.4089028 174.160799,26.4404801 C174.160799,26.5694272 174.160799,26.6983744 174.037649,26.9566583 C173.791349,27.6013941 172.805778,27.8592885 171.573908,27.9882356 C169.603139,28.1171828 165.661228,27.9882356 163.567309,27.8592885 C159.502248,27.7303413 158.27075,27.472447 155.31441,27.2145526 C154.698289,27.0856055 153.71309,27.2145526 153.46679,28.24613 C153.097341,30.0517799 153.097341,30.9547996 154.451989,31.0837468 C158.27075,31.599925 161.719317,31.8578193 166.030677,31.9867665 C178.964758,32.6315023 182.783519,30.4390109 183.768718,24.505883 C184.261317,21.7972134 183.891868,18.1859136 179.457358,17.5411778 C175.022847,16.7671052 167.632369,16.2513165 166.400499,16.1223694 C165.168629,15.9934222 164.676029,15.2197392 165.045479,14.1873827 C165.045479,14.0584356 165.045479,13.9294884 165.168629,13.6715941" id="Fill-16"/><path d="M209.759508,18.0569275 C209.513209,18.443769 208.89746,18.7016633 208.404488,18.7016633 L204.0935,18.7016633 L199.53584,18.7016633 C198.30397,18.7016633 198.18082,18.1858746 198.550269,16.6381191 C199.166019,14.1873438 201.136788,12.2531363 203.600529,12.1241891 C204.955549,11.995242 206.433347,11.995242 207.788739,12.3820835 C210.005808,12.8978721 211.114529,16.1223304 209.759508,18.0569275 M214.440318,9.5440771 C214.317168,9.41512993 214.194019,9.41512993 214.070869,9.41512993 C208.035039,8.25460544 201.999581,8.25460544 196.086529,9.67302427 C191.528869,10.7053807 188.696051,13.6715551 187.71048,18.443769 C187.58733,19.604683 187.34103,20.7655971 187.21788,21.9265112 C186.848059,26.4408307 190.173848,30.3096353 194.362059,31.2130446 C196.579128,31.7288332 198.919719,31.9867275 201.136788,31.9867275 C206.92669,31.9867275 210.498407,31.7288332 214.932918,31.0840974 C216.287938,30.8258135 216.780909,30.3096353 216.657759,28.5039854 C216.657759,27.6013552 215.672189,27.3434609 214.932918,27.3434609 C210.744707,27.472408 206.310197,27.8592495 202.24588,27.8592495 C200.521039,27.8592495 199.042869,27.2145137 198.18082,26.5697779 C197.318771,25.7957053 196.948949,24.3768969 197.318771,23.2159828 C197.688221,22.1844055 198.673419,22.3133527 199.53584,22.3133527 L214.932918,22.3133527 C215.795338,22.3133527 217.396658,22.3133527 218.505379,22.1844055 C219.613727,22.0554583 220.106327,21.5396697 220.352998,20.5077028 C221.584869,14.9618059 220.229848,11.0922222 214.440318,9.5440771" id="Fill-1"/><path d="M42.9747522,0 C38.0476428,0 37.6781933,0 36.2000232,2.70866963 C32.8742337,8.64140798 29.6715939,14.5745359 26.3458044,20.5076638 C25.4833835,22.1843665 24.4981848,23.9900164 23.5126141,25.6667192 C22.6501933,27.2144747 21.2951731,27.0855276 19.9405249,26.9565804 C18.7086545,26.9565804 18.5855047,25.9246135 18.338833,25.0215938 C17.4767842,21.9264722 16.6143633,18.7016244 15.7523145,15.4775556 C14.6435939,11.3500776 13.4117236,7.09365242 12.303003,2.96656396 C11.9335535,1.28986123 11.0715047,0.257894332 9.22388519,0.257894332 L3.18768316,0.257894332 C-0.137734343,0.257894332 -0.507183838,1.4188084 0.478014815,4.77221386 C1.83303502,9.15719664 3.18768316,13.6715162 4.54307542,18.1858357 C5.65142391,21.5396307 6.63699461,25.0215938 7.7453431,28.5039464 C8.23831448,30.1806491 9.22388519,31.4708999 11.0715047,31.4708999 C13.2885737,31.4708999 21.0488734,31.4708999 22.7733431,31.2130056 C25.3602337,31.3419528 27.0847034,30.3095963 28.4397236,27.9881577 C33.2436832,19.4756969 38.1707926,11.0921833 43.097902,2.57972246 C43.3445737,2.19249139 43.5908734,1.8056499 43.7140232,1.4188084 C43.8371731,0.774072566 43.7140232,0 42.9747522,0" id="Fill-3"/><path d="M54.5538128,9.28626068 C53.691764,9.28626068 50.3656024,9.15731351 49.3804037,9.28626068 C47.7787118,9.41520785 46.5472135,10.7054586 46.3005418,12.2528246 C45.8079424,15.6066197 45.3153431,18.8306884 44.8227438,22.1840938 C44.4532943,24.5055324 44.0834727,26.8273605 43.8371731,29.1487991 C43.7140232,30.3097132 44.5764441,31.4706272 45.6847926,31.4706272 L50.9813515,31.4706272 C53.0756428,31.4706272 53.5686141,30.6969442 53.9380636,28.5040633 C54.430663,25.1510474 54.9232623,21.9261995 55.4158616,18.5727941 C55.7856832,16.2513555 56.1551327,13.9295274 56.4014323,11.6080888 C56.5245822,10.4475643 55.6621613,9.41520785 54.5538128,9.28626068" id="Fill-5"/><path d="M56.647732,0 L50.4887522,0 C48.8874323,0 47.5324121,0.774072566 47.4092623,2.4507753 C47.4092623,2.83761679 47.4092623,3.09551113 47.2861125,3.86958369 C47.1629626,5.03010819 48.0253835,6.19102225 49.134104,6.19102225 L55.4158616,6.19102225 C57.5097808,6.19102225 58.0027522,5.41694969 58.3725737,3.22445829 C58.3725737,2.83761679 58.3725737,3.22445829 58.4957236,2.32143856 C58.6188734,1.16091406 57.7560805,0 56.647732,0" id="Fill-7"/><path d="M82.76197,9.28626068 L74.6318488,9.28626068 C73.7698,9.28626068 73.2772007,8.64152485 73.2772007,7.73850512 C73.4003505,6.57798062 73.6466502,5.41706656 73.7698,4.25615249 C73.8929498,3.09523843 73.030901,2.0636611 71.9218084,1.93471393 C71.0597596,1.80576677 67.73397,1.80576677 66.7483993,1.93471393 C65.2702293,1.93471393 64.038731,3.22457516 63.7924313,4.77233073 C63.299832,8.12573618 62.8068606,11.3501945 62.3138892,14.7032104 C62.3138892,14.7032104 62.0675896,16.2513555 61.8212899,18.1859526 C61.4518404,21.0235694 61.2055407,22.8292192 60.8357192,25.666836 C60.5894195,28.1172218 61.8212899,29.9228717 64.038731,30.6969442 C65.3933791,31.2127329 66.8715492,31.4706272 68.3500912,31.5995744 C72.6610795,32.1157526 77.0952175,31.7285216 81.4065778,31.2127329 C83.3777192,30.9548386 83.7471687,30.5679971 83.7471687,28.6330104 C83.7471687,27.3435388 83.6240189,27.2145916 82.3921485,27.3435388 C80.9139785,27.4724859 79.3126586,27.7303803 77.8348606,27.7303803 C76.2331687,27.7303803 74.6318488,27.8593274 73.030901,27.6014331 C71.9218084,27.4724859 70.8134599,26.440519 70.9366098,25.2799945 C70.9366098,24.2476381 72.0449582,17.6701639 72.1681081,16.1224083 C72.4144077,14.1874217 72.4144077,12.7690029 74.2623993,12.7690029 L78.5737596,12.7690029 L82.76197,12.7690029 C84.1169902,12.7690029 84.4864397,12.1238775 84.4864397,10.3186171 C84.4864397,9.28626068 83.500869,9.28626068 82.76197,9.28626068" id="Fill-9"/><path d="M108.752649,18.0569275 C108.506349,18.443769 107.8906,18.7016633 107.397629,18.7016633 L103.086641,18.7016633 L98.5289806,18.7016633 C97.2971103,18.7016633 97.1735884,18.1858746 97.5434099,16.6381191 C98.1591591,14.1873438 100.129928,12.2531363 102.593669,12.1241891 C103.948689,11.995242 105.426859,11.995242 106.781508,12.3820835 C108.998949,12.8978721 110.107669,16.1223304 108.752649,18.0569275 M113.433459,9.5440771 C113.310309,9.41512993 113.187159,9.41512993 113.064009,9.41512993 C107.027807,8.25460544 100.992349,8.25460544 95.0796692,9.67302427 C90.5220093,10.7053807 87.6891911,13.6715551 86.7032483,18.443769 C86.5800985,19.604683 86.3337988,20.7655971 86.210649,21.9265112 C85.8411995,26.4408307 89.1669891,30.3096353 93.3551995,31.2130446 C95.5722685,31.7288332 97.9128594,31.9867275 100.129928,31.9867275 C105.919459,31.9867275 109.491548,31.7288332 113.926058,31.0840974 C115.281078,30.8258135 115.773678,30.3096353 115.650528,28.5039854 C115.650528,27.6013552 114.665329,27.3434609 113.926058,27.3434609 C109.737848,27.472408 105.30371,27.8592495 101.238649,27.8592495 C99.5141793,27.8592495 98.0360093,27.2145137 97.1735884,26.5697779 C96.3115396,25.7957053 95.941718,24.3768969 96.3115396,23.2159828 C96.6809891,22.1844055 97.6665598,22.3133527 98.5289806,22.3133527 L113.926058,22.3133527 C114.788479,22.3133527 116.512577,22.3133527 117.498147,22.1844055 C118.606868,22.0554583 119.099839,21.5396697 119.346139,20.5077028 C120.577637,14.9618059 119.222989,11.0922222 113.433459,9.5440771" id="Fill-11"/></g></g><script xmlns=""/></svg>