<?xml version="1.0" encoding="UTF-8"?>
<!-- Generator: Adobe Illustrator 24.1.3, SVG Export Plug-In . SVG Version: 6.00 Build 0)  -->
<svg version="1.1" id="Layer_1" xmlns="http://www.w3.org/2000/svg" xmlns:xlink="http://www.w3.org/1999/xlink" x="0px" y="0px" viewBox="0 0 600 188" style="enable-background:new 0 0 600 188;" xml:space="preserve">
<style type="text/css">
	.st0{fill-rule:evenodd;clip-rule:evenodd;fill:#1E1E1E;}
	.st1{filter:url(#Adobe_OpacityMaskFilter);}
	.st2{fill-rule:evenodd;clip-rule:evenodd;fill:#FFFFFF;}
	.st3{mask:url(#mask-2_1_);fill-rule:evenodd;clip-rule:evenodd;fill:#1E1E1E;}
	.st4{filter:url(#Adobe_OpacityMaskFilter_1_);}
	.st5{mask:url(#mask-2_2_);fill-rule:evenodd;clip-rule:evenodd;fill:#1E1E1E;}
	.st6{filter:url(#Adobe_OpacityMaskFilter_2_);}
	.st7{mask:url(#mask-2_3_);fill-rule:evenodd;clip-rule:evenodd;fill:#1E1E1E;}
	.st8{filter:url(#Adobe_OpacityMaskFilter_3_);}
	.st9{mask:url(#mask-2_4_);fill-rule:evenodd;clip-rule:evenodd;fill:#1E1E1E;}
	.st10{filter:url(#Adobe_OpacityMaskFilter_4_);}
	.st11{mask:url(#mask-2_5_);fill-rule:evenodd;clip-rule:evenodd;fill:#1E1E1E;}
	.st12{filter:url(#Adobe_OpacityMaskFilter_5_);}
	.st13{mask:url(#mask-2_6_);fill-rule:evenodd;clip-rule:evenodd;fill:#1E1E1E;}
	.st14{filter:url(#Adobe_OpacityMaskFilter_6_);}
	.st15{mask:url(#mask-2_7_);fill-rule:evenodd;clip-rule:evenodd;fill:#1E1E1E;}
	.st16{filter:url(#Adobe_OpacityMaskFilter_7_);}
	.st17{mask:url(#mask-2_8_);fill-rule:evenodd;clip-rule:evenodd;fill:#1E1E1E;}
	.st18{filter:url(#Adobe_OpacityMaskFilter_8_);}
	.st19{mask:url(#mask-2_9_);fill-rule:evenodd;clip-rule:evenodd;fill:#1E1E1E;}
	.st20{filter:url(#Adobe_OpacityMaskFilter_9_);}
	.st21{mask:url(#mask-2_10_);fill-rule:evenodd;clip-rule:evenodd;fill:#1E1E1E;}
	.st22{filter:url(#Adobe_OpacityMaskFilter_10_);}
	.st23{mask:url(#mask-2_11_);fill-rule:evenodd;clip-rule:evenodd;fill:#1E1E1E;}
	.st24{filter:url(#Adobe_OpacityMaskFilter_11_);}
	.st25{mask:url(#mask-2_12_);fill-rule:evenodd;clip-rule:evenodd;fill:#1E1E1E;}
	.st26{filter:url(#Adobe_OpacityMaskFilter_12_);}
	.st27{mask:url(#mask-2_13_);fill-rule:evenodd;clip-rule:evenodd;fill:#1E1E1E;}
	.st28{filter:url(#Adobe_OpacityMaskFilter_13_);}
	.st29{mask:url(#mask-2_14_);fill-rule:evenodd;clip-rule:evenodd;fill:#1E1E1E;}
	.st30{filter:url(#Adobe_OpacityMaskFilter_14_);}
	.st31{mask:url(#mask-2_15_);fill-rule:evenodd;clip-rule:evenodd;fill:#1E1E1E;}
	.st32{filter:url(#Adobe_OpacityMaskFilter_15_);}
	.st33{mask:url(#mask-2_16_);fill-rule:evenodd;clip-rule:evenodd;fill:#22AC38;}
</style>
<desc>Created with Sketch.</desc>
<g id="Page-1">
	<g id="入驻指引" transform="translate(-405.000000, -30.000000)">
		<g id="caidan">
			<g id="菜单" transform="translate(404.000000, 30.000000)">
				<g id="Group-36">
					<path id="Fill-1" class="st0" d="M296.5,150.7l-1.1,3.9c-0.9,3.3-1.7,6.2-2.4,9c-0.9-4.2-2.1-8.9-3.2-13.1l-7.3-28l-0.1-0.5       h-4.8l-8.2,28.7c-1.5,4.8-2.8,9.2-3.7,13.1c-0.7-3-1.5-6.4-2.4-9.9l-8-31.3l-0.1-0.5h-5.6l13.4,51.1l0.1,0.5h4.7l8.6-29.3       c1.5-5,2.6-8.9,3.4-12.3c0.7,3.6,1.7,7.6,3,12.3l7.4,28.8l0.1,0.5h4.8l15.1-50.7l0.3-0.9h-5.6L296.5,150.7z"/>
					<path id="Fill-3" class="st0" d="M315.4,151c1.2-7.4,5.7-10.1,9.5-10.1c2.4,0,4.4,0.8,5.8,2.4c2.1,2.3,2.6,5.7,2.7,7.7H315.4z        M325.4,136.2c-9,0-15,7.8-15,19.4c0,10.8,6.2,18.1,15.5,18.1c5.8,0,9.2-1.6,10.3-2.3l0.7-0.4l-2.1-4l-0.5,0.2       c-1.6,0.8-3.9,1.7-8,1.7c-6.8,0-10.8-4.9-11.1-13.3h23l0.2-0.7c0.1-0.7,0.1-1.3,0.1-2.3c0-1.3-0.2-6-2.4-10       C333.8,138.3,330.2,136.2,325.4,136.2L325.4,136.2z"/>
					<path id="Fill-5" class="st0" d="M382.5,166.9L382.5,166.9c-2.7,1.2-6.4,2-10,2c-12,0-19.2-7.7-19.2-20.6       c0-13.4,7.4-21.4,19.8-21.4c3.4,0,6.7,0.6,9.2,1.8l0.5,0.3l2.4-4.2l-0.7-0.4c-1-0.5-4.6-2.3-11.5-2.3       c-15,0-25.1,10.5-25.1,26.1c0,18.8,12.6,25.5,23.5,25.5c6.1,0,10.8-1.3,13.3-2.5l0.8-0.4l-2.4-4.1L382.5,166.9z"/>
					<path id="Fill-7" class="st0" d="M405.7,136.2c-2.6,0-5.1,0.7-7.2,2.2c-1.2,0.7-2.3,1.7-3.3,2.9v-19.1h-5.2v51.6h5.2v-22.2       c0-1.3,0.1-2.2,0.4-3.2c1.4-4.2,5.2-7.2,9.2-7.2c7.2,0,8.2,6.9,8.2,11v21.5h5.2v-21.9C418.2,136.9,407.8,136.2,405.7,136.2"/>
					<path id="Fill-9" class="st0" d="M470.3,131.5h-4.8v7.6h-5.2v4.1h5.2v19.6c0,3.9,0.7,6.6,2.1,8.3c1.3,1.7,3.3,2.6,5.9,2.6       c1.8,0,3.4-0.3,4.6-0.9l0.8-0.4l-2-3.6l-0.4,0.1c-0.7,0.2-1.6,0.2-2.6,0.2c-2.6,0-3.6-1.7-3.6-5.8v-20.2h8.8v-4.1h-8.8V131.5z"/>
					<path id="Fill-11" class="st0" d="M435.3,158c2.4-2.2,7-3.4,13.5-3.4l0.7,0l0,6.4c0,0.4-0.1,1.1-0.3,1.8       c-1.1,3-4.2,6.2-9.7,6.2c-2.9,0-6.2-1.6-6.2-6.2C433.3,160.9,433.9,159.2,435.3,158 M455,163.9v-13.3c0-9.4-4.6-14.3-13.4-14.3       c-3.9,0-8,1.1-11.1,3.1l-0.6,0.3l2.4,4l0.6-0.4c2.2-1.5,5.2-2.3,8.2-2.3h0.1c2.5,0,4.4,0.6,5.7,1.9c1.6,1.5,2.4,3.9,2.4,7.2       c-8.6,0-14.8,1.8-18.4,5.2c-2.3,2.2-3.5,4.9-3.5,8.2c0,5,3.6,10.3,11.5,10.3c5.5,0,9.1-2.5,10.9-4.4l0.4,3.6h5.3l-0.2-1.1       C455.1,169.2,455,166.5,455,163.9"/>
					<path id="Fill-13" class="st0" d="M512.5,127.4c1-0.2,2.9-0.4,5.7-0.4c7.6,0,12,3.8,12,10.3c0,7.1-4.6,11.1-12.6,11.1       c-1.5,0-3.5-0.1-5.1-0.5V127.4z M518.3,122.1c-3.5,0-6.9,0.3-10.3,1l-0.8,0.1v50.5h5.2v-20.8c1.4,0.3,3,0.3,4.8,0.3       c6.2,0,11.4-2.1,14.6-5.8c2.4-2.7,3.5-6.2,3.5-10.5c0-4.3-1.4-7.8-3.9-10.3C528.6,123.7,524.1,122.1,518.3,122.1L518.3,122.1z"/>
					<path id="Fill-15" class="st0" d="M595.3,136.2l-8.6,22.6c-0.7,1.8-1.3,3.5-1.8,5.1c-0.5-1.7-1.2-3.3-1.7-4.9l-9-22.2l-0.2-0.6       h-5.7l13.3,32.8c0.4,0.9,0.4,1.1,0.4,1.1c0,0.2-0.2,0.7-0.4,1.1c-1.7,4-4,6.7-5.5,8.3c-2.2,2.1-4.5,3.1-5.7,3.6l-1,0.3l2.5,4.3       l0.5-0.2c0.9-0.3,3.3-1.4,6-3.6c4.6-4,7.5-10,11.9-21.1l10.8-26.7H595.3z"/>
					<path id="Fill-17" class="st0" d="M561.9,161c0,0.5-0.1,1.1-0.3,1.8c-1.1,3-4.2,6.2-9.7,6.2c-2.9,0-6.2-1.6-6.2-6.2       c0-2,0.7-3.6,2-4.8c2.4-2.2,7-3.4,13.5-3.4l0.7,0L561.9,161z M567.5,163.9v-13.3c0-9.4-4.6-14.4-13.4-14.4       c-3.6,0-7.6,1-10.6,2.8l-0.6,0.3l2.4,3.9l0.6-0.4c2.2-1.3,5-2,7.8-2h0.1c2.5,0,4.4,0.6,5.7,1.9c1.6,1.5,2.4,3.9,2.4,7.2       c-8.6,0-14.8,1.8-18.4,5.2c-2.3,2.2-3.5,4.9-3.5,8.2c0,5,3.6,10.3,11.5,10.3c5.5,0,9-2.5,10.9-4.4l0.4,3.6h5.3l-0.2-1.1       C567.5,169.2,567.5,166.5,567.5,163.9L567.5,163.9z"/>
					<g id="Clip-20">
					</g>
					<defs>
						<filter id="Adobe_OpacityMaskFilter" filterUnits="userSpaceOnUse" x="371.3" y="42.4" width="46.9" height="4.7">
							<feColorMatrix type="matrix" values="1 0 0 0 0  0 1 0 0 0  0 0 1 0 0  0 0 0 1 0"/>
						</filter>
					</defs>
					<mask maskUnits="userSpaceOnUse" x="371.3" y="42.4" width="46.9" height="4.7" id="mask-2_1_">
						<g class="st1">
							<polygon id="path-1_1_" class="st2" points="-3.7,187.8 605.7,187.8 605.7,0.2 -3.7,0.2        "/>
						</g>
					</mask>
					<polygon id="Fill-19" class="st3" points="371.3,47.1 418.2,47.1 418.2,42.4 371.3,42.4      "/>
					<defs>
						<filter id="Adobe_OpacityMaskFilter_1_" filterUnits="userSpaceOnUse" x="371" y="56.5" width="46.9" height="4.7">
							<feColorMatrix type="matrix" values="1 0 0 0 0  0 1 0 0 0  0 0 1 0 0  0 0 0 1 0"/>
						</filter>
					</defs>
					<mask maskUnits="userSpaceOnUse" x="371" y="56.5" width="46.9" height="4.7" id="mask-2_2_">
						<g class="st4">
							<polygon id="path-1_2_" class="st2" points="-3.7,187.8 605.7,187.8 605.7,0.2 -3.7,0.2        "/>
						</g>
					</mask>
					<polygon id="Fill-21" class="st5" points="371,61.2 417.9,61.2 417.9,56.5 371,56.5      "/>
					<defs>
						<filter id="Adobe_OpacityMaskFilter_2_" filterUnits="userSpaceOnUse" x="371.3" y="70.6" width="46.9" height="28.1">
							<feColorMatrix type="matrix" values="1 0 0 0 0  0 1 0 0 0  0 0 1 0 0  0 0 0 1 0"/>
						</filter>
					</defs>
					<mask maskUnits="userSpaceOnUse" x="371.3" y="70.6" width="46.9" height="28.1" id="mask-2_3_">
						<g class="st6">
							<polygon id="path-1_3_" class="st2" points="-3.7,187.8 605.7,187.8 605.7,0.2 -3.7,0.2        "/>
						</g>
					</mask>
					<path id="Fill-22" class="st7" d="M376.5,93.6H413v-18h-36.5V93.6z M371.3,98.7h46.9V70.6h-46.9V98.7z"/>
					<defs>
						<filter id="Adobe_OpacityMaskFilter_3_" filterUnits="userSpaceOnUse" x="343.2" y="14.3" width="23.4" height="84.4">
							<feColorMatrix type="matrix" values="1 0 0 0 0  0 1 0 0 0  0 0 1 0 0  0 0 0 1 0"/>
						</filter>
					</defs>
					<mask maskUnits="userSpaceOnUse" x="343.2" y="14.3" width="23.4" height="84.4" id="mask-2_4_">
						<g class="st8">
							<polygon id="path-1_4_" class="st2" points="-3.7,187.8 605.7,187.8 605.7,0.2 -3.7,0.2        "/>
						</g>
					</mask>
					<path id="Fill-23" class="st9" d="M359.4,98.7V36.6c2.8-6.1,5.2-12.6,7.2-19.2l0.1-0.2l-4.8-2.8l-0.1,0.3       c-4.3,15.5-10.5,29.4-18.5,41.2l-0.1,0.1l2.9,5l0.2-0.3c2.6-4,5.4-8.5,7.9-13.3v51.3H359.4z"/>
					<defs>
						<filter id="Adobe_OpacityMaskFilter_4_" filterUnits="userSpaceOnUse" x="366.6" y="14.3" width="60.9" height="18.8">
							<feColorMatrix type="matrix" values="1 0 0 0 0  0 1 0 0 0  0 0 1 0 0  0 0 0 1 0"/>
						</filter>
					</defs>
					<mask maskUnits="userSpaceOnUse" x="366.6" y="14.3" width="60.9" height="18.8" id="mask-2_5_">
						<g class="st10">
							<polygon id="path-1_5_" class="st2" points="-3.7,187.8 605.7,187.8 605.7,0.2 -3.7,0.2        "/>
						</g>
					</mask>
					<path id="Fill-24" class="st11" d="M401.4,25.7l-0.1-0.4c-0.3-0.9-1.2-2.8-2.3-5.3c-0.9-2-1.9-4.2-2.3-5.3l-0.2-0.4l-4.9,3.1       l0.2,0.4c1.6,3.2,3,6.2,4.2,9.1c0.1,0.2,0.2,0.4,0.2,0.5h-29.4v5.8h60.9v-5.8h-28.8L401.4,25.7z"/>
					<defs>
						<filter id="Adobe_OpacityMaskFilter_5_" filterUnits="userSpaceOnUse" x="272.9" y="14.3" width="28.1" height="28.1">
							<feColorMatrix type="matrix" values="1 0 0 0 0  0 1 0 0 0  0 0 1 0 0  0 0 0 1 0"/>
						</filter>
					</defs>
					<mask maskUnits="userSpaceOnUse" x="272.9" y="14.3" width="28.1" height="28.1" id="mask-2_6_">
						<g class="st12">
							<polygon id="path-1_6_" class="st2" points="-3.7,187.8 605.7,187.8 605.7,0.2 -3.7,0.2        "/>
						</g>
					</mask>
					<polygon id="Fill-25" class="st13" points="301,21.1 296.5,21.1 296.5,37.3 289.3,37.3 289.3,14.3 284.8,14.3 284.8,37.3        277.4,37.3 277.4,21.1 272.9,21.1 272.9,42.4 301,42.4      "/>
					<defs>
						<filter id="Adobe_OpacityMaskFilter_6_" filterUnits="userSpaceOnUse" x="272.2" y="47.1" width="28.1" height="4.7">
							<feColorMatrix type="matrix" values="1 0 0 0 0  0 1 0 0 0  0 0 1 0 0  0 0 0 1 0"/>
						</filter>
					</defs>
					<mask maskUnits="userSpaceOnUse" x="272.2" y="47.1" width="28.1" height="4.7" id="mask-2_7_">
						<g class="st14">
							<polygon id="path-1_7_" class="st2" points="-3.7,187.8 605.7,187.8 605.7,0.2 -3.7,0.2        "/>
						</g>
					</mask>
					<polygon id="Fill-26" class="st15" points="272.2,51.8 300.3,51.8 300.3,47.1 272.2,47.1      "/>
					<defs>
						<filter id="Adobe_OpacityMaskFilter_7_" filterUnits="userSpaceOnUse" x="268.2" y="61.2" width="37.5" height="32.8">
							<feColorMatrix type="matrix" values="1 0 0 0 0  0 1 0 0 0  0 0 1 0 0  0 0 0 1 0"/>
						</filter>
					</defs>
					<mask maskUnits="userSpaceOnUse" x="268.2" y="61.2" width="37.5" height="32.8" id="mask-2_8_">
						<g class="st16">
							<polygon id="path-1_8_" class="st2" points="-3.7,187.8 605.7,187.8 605.7,0.2 -3.7,0.2        "/>
						</g>
					</mask>
					<path id="Fill-27" class="st17" d="M290.9,82.7l-0.1,0.2l2.8,5.3l0.3-0.3c2.3-2,6.2-5.6,11.5-10.8l0.2-0.2l-2.4-4.5l-6.3,5.9       V61.2h-22.2v7.3c0.6,9.5-1.5,16.3-6.4,20.2l-0.3,0.2l2.5,4.7l0.2,0.4l0.3-0.3c6.2-5.6,9.1-13.5,8.7-23.4v-3.9h12.4v10.1       C292.2,79.9,292,81,290.9,82.7"/>
					<defs>
						<filter id="Adobe_OpacityMaskFilter_8_" filterUnits="userSpaceOnUse" x="249.4" y="14.3" width="18.8" height="28.1">
							<feColorMatrix type="matrix" values="1 0 0 0 0  0 1 0 0 0  0 0 1 0 0  0 0 0 1 0"/>
						</filter>
					</defs>
					<mask maskUnits="userSpaceOnUse" x="249.4" y="14.3" width="18.8" height="28.1" id="mask-2_9_">
						<g class="st18">
							<polygon id="path-1_9_" class="st2" points="-3.7,187.8 605.7,187.8 605.7,0.2 -3.7,0.2        "/>
						</g>
					</mask>
					<path id="Fill-28" class="st19" d="M252.3,42.2c6.3-7.1,11.8-15.7,15.8-25l0.1-0.2l-4.2-2.7l-0.1,0.2       C260,23.5,255,31.3,249.6,37l-0.1,0.1l2.7,5.3L252.3,42.2z"/>
					<defs>
						<filter id="Adobe_OpacityMaskFilter_9_" filterUnits="userSpaceOnUse" x="249.4" y="33.1" width="18.8" height="60.9">
							<feColorMatrix type="matrix" values="1 0 0 0 0  0 1 0 0 0  0 0 1 0 0  0 0 0 1 0"/>
						</filter>
					</defs>
					<mask maskUnits="userSpaceOnUse" x="249.4" y="33.1" width="18.8" height="60.9" id="mask-2_10_">
						<g class="st20">
							<polygon id="path-1_10_" class="st2" points="-3.7,187.8 605.7,187.8 605.7,0.2 -3.7,0.2        "/>
						</g>
					</mask>
					<path id="Fill-29" class="st21" d="M251.9,65.4l0.3-0.4c2.2-2.9,4.3-5.9,6.4-9v38h4.4V47.9c1.8-3.6,3.5-7.5,5.1-11.8l0.1-0.3       l-4.2-2.7l-0.2,0.4c-3.6,10.2-8.4,19.3-14.3,26.8l-0.2,0.2l2.3,4.4L251.9,65.4z"/>
					<defs>
						<filter id="Adobe_OpacityMaskFilter_10_" filterUnits="userSpaceOnUse" x="301" y="14.3" width="32.8" height="84.4">
							<feColorMatrix type="matrix" values="1 0 0 0 0  0 1 0 0 0  0 0 1 0 0  0 0 0 1 0"/>
						</filter>
					</defs>
					<mask maskUnits="userSpaceOnUse" x="301" y="14.3" width="32.8" height="84.4" id="mask-2_11_">
						<g class="st22">
							<polygon id="path-1_11_" class="st2" points="-3.7,187.8 605.7,187.8 605.7,0.2 -3.7,0.2        "/>
						</g>
					</mask>
					<path id="Fill-30" class="st23" d="M312.1,39.6c0.4-1.3,0.9-2.6,1.5-3.9h10.9c-0.9,14.2-3,25.6-6.5,34       C315.4,62.2,313.4,52.1,312.1,39.6L312.1,39.6z M302,49.4l3,5.4l2.1-4.6c0.6-1,1-2,1.4-2.7c1.3,11.7,3.6,21.1,6.7,28.1       c-3.1,5.6-7.8,11.5-14,17.4l-0.2,0.2l2.8,5.1l0.3-0.3c6.5-6.5,11.1-12.2,13.6-17c2.8,5.2,7.5,11.5,12.8,17.2l0.3,0.4l2.8-5.2       l-0.2-0.2c-5.8-5.9-10.4-12-13-17.3c4.7-9.3,7.7-22.8,8.8-40.3h4.6v-5h-18.6c1.5-4.7,3.4-10.9,4-16.2l0-0.3l-4.7,0h-0.2l0,0.2       c-2.7,13.7-6.9,25.4-12.2,34.8L302,49.4z"/>
					<defs>
						<filter id="Adobe_OpacityMaskFilter_11_" filterUnits="userSpaceOnUse" x="432.2" y="14.3" width="79.7" height="84.4">
							<feColorMatrix type="matrix" values="1 0 0 0 0  0 1 0 0 0  0 0 1 0 0  0 0 0 1 0"/>
						</filter>
					</defs>
					<mask maskUnits="userSpaceOnUse" x="432.2" y="14.3" width="79.7" height="84.4" id="mask-2_12_">
						<g class="st24">
							<polygon id="path-1_12_" class="st2" points="-3.7,187.8 605.7,187.8 605.7,0.2 -3.7,0.2        "/>
						</g>
					</mask>
					<path id="Fill-31" class="st25" d="M492.4,51.6c-0.9,2.2-6.2,14.7-21,25.4c-8.8-6.9-16.2-15.9-20.8-25.4H492.4z M474.6,14.3       h-5.3v12h-37v5.2h37v15.3h-24l0,4.6l0,0.1c0,0.1,3.8,8.6,11.2,17.7c3.5,4.3,7,7.8,10.8,11.1c-10.3,6.4-20.8,10.5-33.2,12.9       l-0.3,0.1l2.9,5.2l0.1,0.2l0.2,0c0.2,0,17.5-3.9,34.5-15c0.2,0.2,0.6,0.4,0.9,0.6c3.9,2.7,14.1,10,31.9,14.3l0.3,0.1l2.2-4.2       l-0.3-0.1c-0.1,0-5.2-1.4-12.9-4.4c-4.7-1.8-11.6-4.9-18.3-9.6c10.5-7.9,18.5-18.6,23.3-30.8l0.1-0.2l-4.1-2.4l-0.1,0h-19.9       V31.6h37.4v-5.2h-37.4V14.3z"/>
					<defs>
						<filter id="Adobe_OpacityMaskFilter_12_" filterUnits="userSpaceOnUse" x="521.3" y="14.3" width="23.4" height="84.4">
							<feColorMatrix type="matrix" values="1 0 0 0 0  0 1 0 0 0  0 0 1 0 0  0 0 0 1 0"/>
						</filter>
					</defs>
					<mask maskUnits="userSpaceOnUse" x="521.3" y="14.3" width="23.4" height="84.4" id="mask-2_13_">
						<g class="st26">
							<polygon id="path-1_13_" class="st2" points="-3.7,187.8 605.7,187.8 605.7,0.2 -3.7,0.2        "/>
						</g>
					</mask>
					<path id="Fill-32" class="st27" d="M539.9,14.6c-4.3,15.5-10.5,29.4-18.5,41.2l-0.1,0.1l2.9,5l0.2-0.3c2.6-4,5.4-8.5,7.9-13.3       v51.3h5.2V36.6c2.7-6.1,5.2-12.5,7.2-19.2l0.1-0.2l-4.8-2.8L539.9,14.6z"/>
					<defs>
						<filter id="Adobe_OpacityMaskFilter_13_" filterUnits="userSpaceOnUse" x="544.8" y="19" width="56.2" height="79.7">
							<feColorMatrix type="matrix" values="1 0 0 0 0  0 1 0 0 0  0 0 1 0 0  0 0 0 1 0"/>
						</filter>
					</defs>
					<mask maskUnits="userSpaceOnUse" x="544.8" y="19" width="56.2" height="79.7" id="mask-2_14_">
						<g class="st28">
							<polygon id="path-1_14_" class="st2" points="-3.7,187.8 605.7,187.8 605.7,0.2 -3.7,0.2        "/>
						</g>
					</mask>
					<path id="Fill-33" class="st29" d="M588.4,38.9V19h-5.2v19.9h-38.5V44h38.5v42.9c0,4.5-2.7,6.6-8.2,6.6c-1,0-1.8,0-2.7,0       l-0.2,0v5.1h0.2c1.9,0,3.2,0,4.1,0c4.4,0,7.1-0.9,9.2-3c2-1.9,2.9-4.9,2.8-8.8V44H601v-5.1H588.4z"/>
					<defs>
						<filter id="Adobe_OpacityMaskFilter_14_" filterUnits="userSpaceOnUse" x="554.1" y="51.8" width="14.1" height="23.4">
							<feColorMatrix type="matrix" values="1 0 0 0 0  0 1 0 0 0  0 0 1 0 0  0 0 0 1 0"/>
						</filter>
					</defs>
					<mask maskUnits="userSpaceOnUse" x="554.1" y="51.8" width="14.1" height="23.4" id="mask-2_15_">
						<g class="st30">
							<polygon id="path-1_15_" class="st2" points="-3.7,187.8 605.7,187.8 605.7,0.2 -3.7,0.2        "/>
						</g>
					</mask>
					<path id="Fill-34" class="st31" d="M558.7,52l-0.1-0.2l-4.4,2.7l0.1,0.2c2.7,5.6,5.7,12.4,9,20.3l0.1,0.2l4.8-3l-0.1-0.2       C565.6,66.7,562.3,59.8,558.7,52"/>
					<defs>
						<filter id="Adobe_OpacityMaskFilter_15_" filterUnits="userSpaceOnUse" x="1" y="0.2" width="210.9" height="182.8">
							<feColorMatrix type="matrix" values="1 0 0 0 0  0 1 0 0 0  0 0 1 0 0  0 0 0 1 0"/>
						</filter>
					</defs>
					<mask maskUnits="userSpaceOnUse" x="1" y="0.2" width="210.9" height="182.8" id="mask-2_16_">
						<g class="st32">
							<polygon id="path-1_16_" class="st2" points="-3.7,187.8 605.7,187.8 605.7,0.2 -3.7,0.2        "/>
						</g>
					</mask>
					<path id="Fill-35" class="st33" d="M77.7,115.9c-1,0.5-2,0.7-3.2,0.7c-2.6,0-4.9-1.4-6.1-3.5l-0.5-1L48.8,70.7       c-0.2-0.4-0.3-1-0.3-1.5c0-1.9,1.6-3.5,3.5-3.5c0.8,0,1.5,0.3,2.1,0.7l22.7,15.8c1.7,1.1,3.6,1.7,5.8,1.7       c1.3,0,2.5-0.2,3.6-0.6l106.6-46.6c-19.1-22.1-50.6-36.6-86.2-36.6C48.2,0.2,1,38.9,1,86.6c0,26,14.2,49.4,36.4,65.3       c1.8,1.3,2.9,3.3,2.9,5.6c0,0.8-0.2,1.5-0.4,2.2c-1.8,6.5-4.6,16.9-4.7,17.4c-0.2,0.8-0.6,1.7-0.6,2.5c0,1.9,1.6,3.5,3.5,3.5       c0.8,0,1.4-0.3,2-0.6l23.1-13.1c1.7-1,3.6-1.6,5.6-1.6c1.1,0,2.1,0.2,3.1,0.5c10.8,3,22.4,4.7,34.4,4.7       c58.2,0,105.5-38.7,105.5-86.3c0-14.4-4.4-28-12-40L78.5,115.5L77.7,115.9z"/>
				</g>
			</g>
		</g>
	</g>
</g>
<script xmlns=""/></svg>